<?xml version="1.0"?>
<svg  width="400" height="200" viewBox="0 0 2181.32 732.1" preserveAspectRatio="xMidYMid meet" xmlns="http://www.w3.org/2000/svg" xmlns:svg="http://www.w3.org/2000/svg">
 <defs>
  <style>.cls-1{fill:none;stroke:#333;stroke-miterlimit:10;stroke-width:6px;}.cls-2{fill:#9bc741;}.cls-3{fill:#333;}.cls-4{fill:#cc00be;}.cls-5{fill:#4d59b7;}</style>
 </defs>
 <g class="layer">
  <title>Layer 1</title>
  <g id="Layer_1-2">
   <g id="svg_1">
    <g id="svg_2">
     <path class="cls-5" d="m499.74,316.63c10.3,-17.07 24.64,-30.37 43.05,-39.9s39.27,-14.3 62.61,-14.3c28.58,0 53.05,6.91 73.41,20.74c20.35,13.82 33.97,32.68 40.82,56.55l-64.49,0c-4.8,-9.22 -11.61,-16.23 -20.42,-21.05c-8.81,-4.82 -18.81,-7.23 -30.01,-7.23c-18.07,0 -32.71,5.76 -43.91,17.28c-11.21,11.52 -16.81,26.92 -16.81,46.19s5.6,34.67 16.81,46.19c11.2,11.52 25.84,17.28 43.91,17.28c11.2,0 21.21,-2.41 30.01,-7.23s15.61,-11.83 20.42,-21.05l64.49,0c-6.86,23.88 -20.47,42.68 -40.82,56.4c-20.36,13.72 -44.83,20.58 -73.41,20.58c-23.33,0 -44.2,-4.76 -62.61,-14.3c-18.41,-9.53 -32.77,-22.78 -43.05,-39.75c-10.3,-16.97 -15.44,-36.34 -15.44,-58.13s5.14,-41.21 15.44,-58.28l0,0l0,0.01z" id="svg_3"/>
     <path class="cls-5" d="m805.24,473.25c-18.87,-9.63 -33.85,-23.09 -44.94,-40.37s-16.64,-36.71 -16.64,-58.28s5.55,-40.95 16.64,-58.13c11.09,-17.17 26.07,-30.58 44.94,-40.22c18.87,-9.63 39.62,-14.45 62.27,-14.45s43.4,4.82 62.27,14.45c18.87,9.64 33.73,23.05 44.59,40.22c10.86,17.18 16.29,36.55 16.29,58.13s-5.49,41 -16.46,58.28s-25.84,30.74 -44.6,40.37c-18.76,9.64 -39.45,14.45 -62.09,14.45s-43.4,-4.82 -62.27,-14.45l0,0l0.01,0zm108.41,-52.16c11.54,-11.73 17.33,-27.23 17.33,-46.5s-5.78,-35.03 -17.33,-46.66s-26.92,-17.44 -46.14,-17.44s-34.94,5.76 -46.48,17.28c-11.55,11.52 -17.33,27.13 -17.33,46.81s5.78,35.03 17.33,46.66c11.54,11.63 27.04,17.44 46.48,17.44s34.59,-5.86 46.14,-17.59z" id="svg_4"/>
     <path class="cls-5" d="m1092.2,444.03l76.84,0l0,41.47l-135.51,0l0,-220.57l58.66,0l0,179.09l0,0l0,0.01z" id="svg_5"/>
     <path class="cls-5" d="m1364.24,278.77c18.98,9.22 33.67,22.15 44.08,38.8s15.61,35.87 15.61,57.66s-5.21,40.74 -15.61,57.5s-25.17,29.74 -44.25,38.96c-19.1,9.22 -41.23,13.83 -66.38,13.83l-90.22,0l0,-220.57l90.22,0c25.38,0 47.57,4.61 66.55,13.82l0.01,0zm-18.53,143.59c12.35,-11.1 18.53,-26.81 18.53,-47.13s-6.18,-36.13 -18.53,-47.44c-12.35,-11.31 -29.62,-16.97 -51.8,-16.97l-27.79,0l0,128.19l27.79,0c22.19,0 39.45,-5.55 51.8,-16.65z" id="svg_6"/>
     <path class="cls-5" d="m1663.57,316.63c10.3,-17.07 24.64,-30.37 43.05,-39.9c18.41,-9.53 39.27,-14.3 62.61,-14.3c28.58,0 53.05,6.91 73.41,20.74c20.35,13.82 33.97,32.68 40.82,56.55l-64.49,0c-4.8,-9.22 -11.61,-16.23 -20.42,-21.05c-8.81,-4.82 -18.81,-7.23 -30.01,-7.23c-18.07,0 -32.71,5.76 -43.91,17.28c-11.21,11.52 -16.81,26.92 -16.81,46.19s5.6,34.67 16.81,46.19c11.2,11.52 25.84,17.28 43.91,17.28c11.2,0 21.21,-2.41 30.01,-7.23c8.8,-4.82 15.61,-11.83 20.42,-21.05l64.49,0c-6.86,23.88 -20.47,42.68 -40.82,56.4c-20.36,13.72 -44.83,20.58 -73.41,20.58c-23.33,0 -44.2,-4.76 -62.61,-14.3c-18.41,-9.53 -32.77,-22.78 -43.05,-39.75c-10.3,-16.97 -15.44,-36.34 -15.44,-58.13s5.14,-41.21 15.44,-58.28l0,0l0,0.01z" id="svg_7"/>
     <path class="cls-5" d="m2069.4,485.51l-80.96,-97.4l0,97.4l-58.66,0l0,-220.57l58.66,0l0,96.77l80.27,-96.77l68.95,0l-93.31,108.08l96.75,112.48l-71.7,0l0,0.01z" id="svg_8"/>
     <g id="svg_9">
      <rect class="cls-5" height="54.23" id="svg_10" width="148.03" x="1463.42" y="433.29"/>
      <rect class="cls-5" height="54.23" id="svg_11" width="148.03" x="1463.42" y="266.7"/>
      <rect class="cls-5" height="54.23" id="svg_12" width="148.03" x="1463.42" y="349.99"/>
     </g>
    </g>
    <g id="svg_13">
     <path class="cls-2" d="m248.05,351.44c6.42,0.97 12.06,3.92 16.09,8.05l-16.05,8.09l0,-2.05s-0.04,-0.07 -0.04,-0.11l0,-13.98l0,0z" id="svg_14"/>
     <path class="cls-2" d="m222.76,359.16c4.02,-3.99 9.59,-6.82 15.88,-7.72l0,15.74l-15.88,-8.02z" id="svg_15"/>
     <path class="cls-2" d="m346.9,317.77l81.3,-40.98l-179.33,-90.24l-0.09,-8.65l-0.04,-2.72c0.04,-4.66 0.47,-9.36 1.24,-14.02c0,-0.15 0,-0.3 0.09,-0.45c0.09,-0.41 0.13,-0.86 0.25,-1.27c0,-0.15 0,-0.3 0.09,-0.45c3.9,-21.48 15.45,-42.06 35.81,-55.26l0.29,-0.6l-0.17,-0.22c-8.18,3.84 -15.36,9.17 -21.56,15.33c-9.25,9.06 -15.88,19.8 -20.07,31.32c-6.93,-12.31 -22.81,-34.98 -49.34,-43.55c-36.41,-11.82 -77.5,7.91 -79.24,8.76l-3.46,1.72l1.33,3.28c0.69,1.6 17.03,39.94 53.44,51.76c8.34,2.68 16.9,3.73 25.2,3.73c20.16,0 38.64,-6.15 47.93,-9.84c-1.16,6.79 -1.54,13.69 -1.16,20.51l-180.36,90.72l81.38,41.02l-6.2,-20.14c-0.69,-2.2 0.81,-4.44 3.34,-5.03c2.48,-0.6 5.09,0.71 5.78,2.91l8.6,28.08l23.19,11.67l-14.25,-46.43c-0.69,-2.16 0.81,-4.44 3.34,-5c2.48,-0.6 5.09,0.71 5.73,2.87l16.73,54.37l27.78,14.02c5.82,-6.38 14.42,-10.81 24.17,-11.86l0,-29.05l-45.35,-39.53c-1.67,-1.45 -1.67,-3.8 0,-5.26c1.67,-1.45 4.41,-1.45 6.08,0l39.28,34.23l0,-24.5l-23.23,-20.25c-1.67,-1.49 -1.67,-3.84 0,-5.29s4.37,-1.45 6.04,0l17.21,14.99l0,-26.89c0,-2.28 2.14,-4.1 4.71,-4.1s4.71,1.83 4.71,4.1l0,26.89l17.2,-14.99c1.67,-1.45 4.41,-1.45 6.08,0s1.67,3.8 0,5.29l-23.28,20.25l0,24.5l39.33,-34.23c1.67,-1.45 4.37,-1.45 6.04,0s1.67,3.8 0,5.26l-45.35,39.53l0,29.05c9.88,1.12 18.53,5.67 24.35,12.19l28.2,-14.21l16.73,-54.37c0.64,-2.2 3.21,-3.5 5.73,-2.91c2.52,0.6 4.02,2.87 3.34,5.03l-14.29,46.42l23.28,-11.71l8.6,-28.08c0.69,-2.16 3.25,-3.47 5.78,-2.87c2.52,0.56 3.99,2.83 3.34,5l-6.2,20.14l-0.04,0l0,0l0,0.01zm-176.21,-153.91c-26.4,-8.58 -41.55,-34.31 -46.22,-43.55c10.48,-4.33 41.21,-15.18 67.65,-6.6c18.4,5.97 31.32,20.25 39.07,31.51c-23.45,-16.59 -54.56,-25.58 -84.26,-18.98l0.17,0.52c9.03,-1.16 18.23,-0.48 27.09,0.97c22.12,3.69 41.51,14.62 57.12,28.41l2.9,2.72c-13,4.85 -39.96,12.64 -63.54,5l0.01,0z" id="svg_16"/>
     <path class="cls-5" d="m222.03,390.18l16.61,-8.32l0,16.78c-6.67,-0.97 -12.53,-4.06 -16.61,-8.46z" id="svg_17"/>
     <path class="cls-5" d="m217.41,383.02c-1.07,-2.5 -1.63,-5.18 -1.63,-7.98c0,-3.13 0.69,-6.15 2.01,-8.91l16.65,8.39l-17.03,8.5z" id="svg_18"/>
     <path class="cls-5" d="m193.01,473.78c-1.85,1.6 -1.85,4.21 0,5.78c1.83,1.6 4.84,1.6 6.67,0l38.98,-33.93l0,23.38l-23.57,20.55c-1.83,1.6 -1.83,4.18 0,5.78c1.85,1.6 4.79,1.6 6.63,0l16.95,-14.73l0,82.82l-184.99,-93.07l0,-186.67l0.29,-0.15l81.69,41.2l-23.06,5.41c-2.52,0.56 -3.97,2.83 -3.34,5c0.56,1.86 2.48,3.06 4.53,3.06c0.43,0 0.81,-0.04 1.24,-0.15l32.18,-7.5l23.19,11.71l-53.27,12.42c-2.48,0.6 -3.99,2.87 -3.3,5.03c0.56,1.83 2.43,3.06 4.53,3.06c0.38,0 0.81,-0.07 1.2,-0.15l62.34,-14.58l27.6,13.91l0,0.04c-2.01,3.99 -3.17,8.43 -3.17,13.05c0,4.29 0.98,8.39 2.74,12.16l-27.04,13.5l-62.43,-14.58c-2.52,-0.6 -5.09,0.71 -5.78,2.91c-0.64,2.16 0.81,4.44 3.34,5.03l53.31,12.42l-23.28,11.67l-32.18,-7.53c-2.52,-0.6 -5.13,0.71 -5.78,2.91c-0.69,2.2 0.81,4.44 3.34,5.03l23.03,5.37l-26.15,13.09c-2.23,1.12 -3.04,3.62 -1.71,5.59c0.85,1.31 2.43,2.05 4.06,2.05c0.81,0 1.63,-0.19 2.36,-0.56l26.23,-13.09l-6.2,20.14c-0.69,2.2 0.81,4.44 3.3,5.03c0.43,0.11 0.85,0.15 1.24,0.15c2.1,0 3.99,-1.19 4.53,-3.06l8.65,-28.04l23.23,-11.63l-14.25,46.43c-0.69,2.16 0.81,4.44 3.3,5c0.43,0.11 0.81,0.15 1.24,0.15c2.05,0 3.99,-1.19 4.53,-3.02l16.69,-54.29l27.09,-13.54c5.82,6.82 14.72,11.56 24.9,12.64l0,27.07l-45.66,39.75l0,-0.02l0,0z" id="svg_19"/>
     <path class="cls-4" d="m269.35,382.65l-16.09,-8.09l14.63,-7.35c0.25,-0.11 0.38,-0.3 0.6,-0.41l0.47,-0.22c1.16,2.65 1.8,5.48 1.8,8.46c0,2.65 -0.51,5.22 -1.41,7.61l0,0z" id="svg_20"/>
     <path class="cls-4" d="m248.1,398.65l0,-17.26l12.28,6.19c0.13,0.11 0.22,0.22 0.34,0.3l4.06,2.05c-4.06,4.47 -9.92,7.68 -16.69,8.73l0.01,0l0,-0.01z" id="svg_21"/>
     <path class="cls-4" d="m433.42,283.61l0,186.41l-185.33,93.26l0,-82.63l16.86,14.69c0.94,0.82 2.14,1.23 3.34,1.23s2.39,-0.41 3.34,-1.23c1.85,-1.6 1.85,-4.18 0,-5.78l-23.54,-20.51l0,-23.49l39.02,34.01c0.9,0.82 2.1,1.23 3.34,1.23s2.39,-0.41 3.3,-1.23c1.83,-1.57 1.83,-4.18 0,-5.78l-45.66,-39.83l0,-27c10.23,-1.19 19.13,-6 24.9,-12.9l27.51,13.83l16.73,54.37c0.56,1.83 2.48,3.02 4.53,3.02c0.43,0 0.81,-0.04 1.24,-0.15c2.48,-0.56 3.99,-2.83 3.3,-5l-14.25,-46.46l23.32,11.75l8.6,28.04c0.56,1.83 2.48,3.06 4.53,3.06c0.43,0 0.81,-0.04 1.24,-0.15c2.52,-0.6 3.99,-2.83 3.34,-5.03l-6.2,-20.1l26.19,13.16c0.78,0.37 1.54,0.56 2.36,0.56c1.63,0 3.21,-0.75 4.06,-2.05c1.32,-1.98 0.56,-4.47 -1.71,-5.59l-26.19,-13.2l23.1,-5.41c2.48,-0.56 3.97,-2.83 3.3,-5c-0.64,-2.2 -3.25,-3.5 -5.73,-2.91l-32.18,7.53l-23.32,-11.75l53.27,-12.45c2.52,-0.56 3.99,-2.83 3.34,-5c-0.69,-2.2 -3.25,-3.51 -5.78,-2.91l-62.39,14.54l-27.6,-13.87l-0.04,-0.04c1.71,-3.65 2.61,-7.64 2.61,-11.82c0,-4.47 -1.07,-8.76 -2.95,-12.64l28.07,-14.21l62.39,14.58c0.38,0.07 0.81,0.15 1.2,0.15c2.1,0 3.99,-1.23 4.53,-3.06c0.69,-2.2 -0.81,-4.44 -3.34,-5.03l-53.27,-12.42l23.28,-11.75l32.18,7.53c0.38,0.07 0.81,0.11 1.2,0.11c2.1,0 3.99,-1.19 4.57,-3.02c0.64,-2.2 -0.85,-4.44 -3.34,-5.03l-23.1,-5.37l81.82,-41.28l0,0.02l-0.01,0z" id="svg_22"/>
    </g>
   </g>
  </g>
  <circle class="cls-1" cx="2111.31" cy="196.7" id="svg_26" r="46.72" transform="matrix(1 0 0 1 0 0)"/>
  <text fill="#000000" font-family="Serif" font-size="24" id="svg_27" stroke-width="0" text-anchor="middle" transform="matrix(3.57776 0 0 2.41934 -4830.35 -220.106)" x="1940.46" xml:space="preserve" y="179.68">R</text>
 </g>
</svg>