<?xml version="1.0" encoding="UTF-8"?><svg id="Layer_2" xmlns="http://www.w3.org/2000/svg" viewBox="0 0 588.48 588.48"><defs><style>.cls-1{fill:none;}.cls-2{fill:#9bc741;}.cls-3{fill:#cc00be;}.cls-4{fill:#4d59b7;}</style></defs><g id="Layer_1-2"><g><rect class="cls-1" width="588.48" height="588.48"/><g><path class="cls-2" d="m298.36,312.85c5.88.97,11.05,3.92,14.74,8.05l-14.7,8.09v-2.05s-.04-.07-.04-.11v-13.98Z"/><path class="cls-2" d="m275.19,320.57c3.68-3.99,8.78-6.82,14.54-7.72v15.74l-14.54-8.02Z"/><path class="cls-2" d="m388.89,279.17l74.46-40.98-164.25-90.24-.08-8.65-.04-2.72c.04-4.66.43-9.36,1.14-14.02,0-.15,0-.3.08-.45.08-.41.12-.86.23-1.27,0-.15,0-.3.08-.45,3.57-21.48,14.15-42.06,32.8-55.26l.27-.6-.16-.22c-7.49,3.84-14.07,9.17-19.75,15.33-8.47,9.06-14.54,19.8-18.38,31.32-6.35-12.31-20.89-34.98-45.19-43.55-33.35-11.82-70.98,7.91-72.58,8.76l-3.17,1.72,1.22,3.28c.63,1.6,15.6,39.94,48.95,51.76,7.64,2.68,15.48,3.73,23.08,3.73,18.46,0,35.39-6.15,43.9-9.84-1.06,6.79-1.41,13.69-1.06,20.51l-165.19,90.72,74.54,41.02-5.68-20.14c-.63-2.2.74-4.44,3.06-5.03,2.27-.6,4.66.71,5.29,2.91l7.88,28.08,21.24,11.67-13.05-46.43c-.63-2.16.74-4.44,3.06-5,2.27-.6,4.66.71,5.25,2.87l15.32,54.37,25.44,14.02c5.33-6.38,13.21-10.81,22.14-11.86v-29.05l-41.54-39.53c-1.53-1.45-1.53-3.8,0-5.26,1.53-1.45,4.04-1.45,5.57,0l35.98,34.23v-24.5l-21.28-20.25c-1.53-1.49-1.53-3.84,0-5.29s4-1.45,5.53,0l15.76,14.99v-26.89c0-2.28,1.96-4.1,4.31-4.1s4.31,1.83,4.31,4.1v26.89l15.75-14.99c1.53-1.45,4.04-1.45,5.57,0,1.53,1.45,1.53,3.8,0,5.29l-21.32,20.25v24.5l36.02-34.23c1.53-1.45,4-1.45,5.53,0,1.53,1.45,1.53,3.8,0,5.26l-41.54,39.53v29.05c9.05,1.12,16.97,5.67,22.3,12.19l25.83-14.21,15.32-54.37c.59-2.2,2.94-3.5,5.25-2.91,2.31.6,3.68,2.87,3.06,5.03l-13.09,46.42,21.32-11.71,7.88-28.08c.63-2.16,2.98-3.47,5.29-2.87,2.31.56,3.65,2.83,3.06,5l-5.68,20.14ZM227.5,125.24c-24.18-8.58-38.06-34.31-42.33-43.55,9.6-4.33,37.74-15.18,61.96-6.6,16.85,5.97,28.69,20.25,35.78,31.51-21.48-16.59-49.97-25.58-77.17-18.98l.16.52c8.27-1.16,16.7-.48,24.81.97,20.26,3.69,38.02,14.62,52.32,28.41l2.66,2.72c-11.91,4.85-36.6,12.64-58.2,5Z"/><path class="cls-4" d="m274.53,351.59l15.21-8.32v16.78c-6.11-.97-11.48-4.06-15.21-8.46Z"/><path class="cls-4" d="m270.29,344.43c-.98-2.5-1.49-5.18-1.49-7.98,0-3.13.63-6.15,1.84-8.91l15.25,8.39-15.6,8.5Z"/><path class="cls-4" d="m247.95,435.19c-1.69,1.6-1.69,4.21,0,5.78,1.68,1.6,4.43,1.6,6.11,0l35.7-33.93v23.38l-21.59,20.55c-1.68,1.6-1.68,4.18,0,5.78,1.69,1.6,4.39,1.6,6.07,0l15.52-14.73v82.82l-169.43-93.07v-186.67l.27-.15,74.82,41.2-21.12,5.41c-2.31.56-3.64,2.83-3.06,5,.51,1.86,2.27,3.06,4.15,3.06.39,0,.74-.04,1.14-.15l29.47-7.5,21.24,11.71-48.79,12.42c-2.27.6-3.65,2.87-3.02,5.03.51,1.83,2.23,3.06,4.15,3.06.35,0,.74-.07,1.1-.15l57.1-14.58,25.28,13.91v.04c-1.84,3.99-2.9,8.43-2.9,13.05,0,4.29.9,8.39,2.51,12.16l-24.77,13.5-57.18-14.58c-2.31-.6-4.66.71-5.29,2.91-.59,2.16.74,4.44,3.06,5.03l48.83,12.42-21.32,11.67-29.47-7.53c-2.31-.6-4.7.71-5.29,2.91-.63,2.2.74,4.44,3.06,5.03l21.09,5.37-23.95,13.09c-2.04,1.12-2.78,3.62-1.57,5.59.78,1.31,2.23,2.05,3.72,2.05.74,0,1.49-.19,2.16-.56l24.02-13.09-5.68,20.14c-.63,2.2.74,4.44,3.02,5.03.39.11.78.15,1.14.15,1.92,0,3.65-1.19,4.15-3.06l7.92-28.04,21.28-11.63-13.05,46.43c-.63,2.16.74,4.44,3.02,5,.39.11.74.15,1.14.15,1.88,0,3.65-1.19,4.15-3.02l15.29-54.29,24.81-13.54c5.33,6.82,13.48,11.56,22.81,12.64v27.07l-41.82,39.75Z"/><path class="cls-3" d="m317.87,344.06l-14.74-8.09,13.4-7.35c.23-.11.35-.3.55-.41l.43-.22c1.06,2.65,1.65,5.48,1.65,8.46,0,2.65-.47,5.22-1.29,7.61Z"/><path class="cls-3" d="m298.39,360.05v-17.26l11.25,6.19c.12.11.2.22.31.3l3.72,2.05c-3.72,4.47-9.09,7.68-15.29,8.73Z"/><path class="cls-3" d="m468.14,245.02v186.41l-169.74,93.26v-82.63l15.44,14.69c.86.82,1.96,1.23,3.06,1.23s2.19-.41,3.06-1.23c1.69-1.6,1.69-4.18,0-5.78l-21.56-20.51v-23.49l35.74,34.01c.82.82,1.92,1.23,3.06,1.23s2.19-.41,3.02-1.23c1.68-1.57,1.68-4.18,0-5.78l-41.82-39.83v-27c9.37-1.19,17.52-6,22.81-12.9l25.2,13.83,15.32,54.37c.51,1.83,2.27,3.02,4.15,3.02.39,0,.74-.04,1.14-.15,2.27-.56,3.65-2.83,3.02-5l-13.05-46.46,21.36,11.75,7.88,28.04c.51,1.83,2.27,3.06,4.15,3.06.39,0,.74-.04,1.14-.15,2.31-.6,3.65-2.83,3.06-5.03l-5.68-20.1,23.99,13.16c.71.37,1.41.56,2.16.56,1.49,0,2.94-.75,3.72-2.05,1.21-1.98.51-4.47-1.57-5.59l-23.99-13.2,21.16-5.41c2.27-.56,3.64-2.83,3.02-5-.59-2.2-2.98-3.5-5.25-2.91l-29.47,7.53-21.36-11.75,48.79-12.45c2.31-.56,3.65-2.83,3.06-5-.63-2.2-2.98-3.51-5.29-2.91l-57.14,14.54-25.28-13.87-.04-.04c1.57-3.65,2.39-7.64,2.39-11.82,0-4.47-.98-8.76-2.7-12.64l25.71-14.21,57.14,14.58c.35.07.74.15,1.1.15,1.92,0,3.65-1.23,4.15-3.06.63-2.2-.74-4.44-3.06-5.03l-48.79-12.42,21.32-11.75,29.47,7.53c.35.07.74.11,1.1.11,1.92,0,3.65-1.19,4.19-3.02.59-2.2-.78-4.44-3.06-5.03l-21.16-5.37,74.94-41.28Z"/></g></g></g></svg>
